<mxfile host="app.diagrams.net" agent="Mozilla/5.0 (Windows NT 10.0; Win64; x64) AppleWebKit/537.36 (KHTML, like Gecko) Chrome/135.0.0.0 Safari/537.36 Edg/135.0.0.0" version="26.2.15">
  <diagram name="Page-1" id="929967ad-93f9-6ef4-fab6-5d389245f69c">
    <mxGraphModel dx="1205" dy="820" grid="0" gridSize="10" guides="1" tooltips="1" connect="1" arrows="1" fold="1" page="1" pageScale="1.5" pageWidth="1169" pageHeight="826" background="none" math="0" shadow="0">
      <root>
        <mxCell id="0" style=";html=1;" />
        <mxCell id="1" style=";html=1;" parent="0" />
        <mxCell id="1672d66443f91eb5-1" value="&lt;p style=&quot;margin: 0px ; margin-top: 4px ; margin-left: 10px ; text-align: left&quot;&gt;&lt;font style=&quot;font-size: 15px;&quot;&gt;UC 管理员 ：用户功能模块&lt;/font&gt;&lt;/p&gt;" style="html=1;strokeWidth=1;shape=mxgraph.sysml.package;html=1;overflow=fill;whiteSpace=wrap;fillColor=none;gradientColor=none;fontSize=12;align=center;labelX=320.71;" parent="1" vertex="1">
          <mxGeometry x="153" y="189" width="1346" height="856" as="geometry" />
        </mxCell>
        <mxCell id="sTkiGFbXtS2oKgOgArmW-1" value="超级管理员" style="shape=umlActor;verticalLabelPosition=bottom;verticalAlign=top;html=1;outlineConnect=0;fontSize=17;" vertex="1" parent="1">
          <mxGeometry x="224" y="547" width="74" height="134" as="geometry" />
        </mxCell>
        <mxCell id="sTkiGFbXtS2oKgOgArmW-8" value="用户管理" style="ellipse;whiteSpace=wrap;html=1;fontSize=17;" vertex="1" parent="1">
          <mxGeometry x="454" y="543" width="272" height="137.5" as="geometry" />
        </mxCell>
        <mxCell id="sTkiGFbXtS2oKgOgArmW-9" value="用户添加" style="ellipse;whiteSpace=wrap;html=1;fontSize=17;" vertex="1" parent="1">
          <mxGeometry x="818" y="222" width="272" height="137.5" as="geometry" />
        </mxCell>
        <mxCell id="sTkiGFbXtS2oKgOgArmW-10" value="用户删除&lt;span style=&quot;color: rgba(0, 0, 0, 0); font-family: monospace; font-size: 0px; text-align: start; text-wrap-mode: nowrap;&quot;&gt;%3CmxGraphModel%3E%3Croot%3E%3CmxCell%20id%3D%220%22%2F%3E%3CmxCell%20id%3D%221%22%20parent%3D%220%22%2F%3E%3CmxCell%20id%3D%222%22%20value%3D%22Use%20Case%22%20style%3D%22ellipse%3BwhiteSpace%3Dwrap%3Bhtml%3D1%3B%22%20vertex%3D%221%22%20parent%3D%221%22%3E%3CmxGeometry%20x%3D%22387%22%20y%3D%22528.5%22%20width%3D%22272%22%20height%3D%22137.5%22%20as%3D%22geometry%22%2F%3E%3C%2FmxCell%3E%3C%2Froot%3E%3C%2FmxGraphModel%3E&lt;/span&gt;" style="ellipse;whiteSpace=wrap;html=1;fontSize=17;" vertex="1" parent="1">
          <mxGeometry x="818" y="716" width="272" height="137.5" as="geometry" />
        </mxCell>
        <mxCell id="sTkiGFbXtS2oKgOgArmW-11" value="用户查询" style="ellipse;whiteSpace=wrap;html=1;fontSize=17;" vertex="1" parent="1">
          <mxGeometry x="818" y="552" width="272" height="137.5" as="geometry" />
        </mxCell>
        <mxCell id="sTkiGFbXtS2oKgOgArmW-12" value="用户编辑" style="ellipse;whiteSpace=wrap;html=1;fontSize=17;" vertex="1" parent="1">
          <mxGeometry x="818" y="387" width="272" height="137.5" as="geometry" />
        </mxCell>
        <mxCell id="sTkiGFbXtS2oKgOgArmW-13" value="用户禁用" style="ellipse;whiteSpace=wrap;html=1;fontSize=17;" vertex="1" parent="1">
          <mxGeometry x="818" y="881" width="272" height="137.5" as="geometry" />
        </mxCell>
        <mxCell id="sTkiGFbXtS2oKgOgArmW-14" value="" style="endArrow=classic;html=1;rounded=0;dashed=1;entryX=0.027;entryY=0.662;entryDx=0;entryDy=0;entryPerimeter=0;" edge="1" parent="1" target="sTkiGFbXtS2oKgOgArmW-9">
          <mxGeometry width="50" height="50" relative="1" as="geometry">
            <mxPoint x="726" y="614" as="sourcePoint" />
            <mxPoint x="776" y="564" as="targetPoint" />
          </mxGeometry>
        </mxCell>
        <mxCell id="sTkiGFbXtS2oKgOgArmW-15" value="" style="endArrow=classic;html=1;rounded=0;dashed=1;entryX=0.027;entryY=0.662;entryDx=0;entryDy=0;entryPerimeter=0;exitX=1;exitY=0.5;exitDx=0;exitDy=0;" edge="1" parent="1" source="sTkiGFbXtS2oKgOgArmW-8">
          <mxGeometry width="50" height="50" relative="1" as="geometry">
            <mxPoint x="724" y="1077" as="sourcePoint" />
            <mxPoint x="823" y="776" as="targetPoint" />
          </mxGeometry>
        </mxCell>
        <mxCell id="sTkiGFbXtS2oKgOgArmW-16" value="" style="endArrow=classic;html=1;rounded=0;dashed=1;entryX=0;entryY=0.5;entryDx=0;entryDy=0;exitX=1;exitY=0.5;exitDx=0;exitDy=0;" edge="1" parent="1" source="sTkiGFbXtS2oKgOgArmW-8" target="sTkiGFbXtS2oKgOgArmW-11">
          <mxGeometry width="50" height="50" relative="1" as="geometry">
            <mxPoint x="674" y="962" as="sourcePoint" />
            <mxPoint x="773" y="661" as="targetPoint" />
          </mxGeometry>
        </mxCell>
        <mxCell id="sTkiGFbXtS2oKgOgArmW-17" value="" style="endArrow=classic;html=1;rounded=0;dashed=1;entryX=0.019;entryY=0.634;entryDx=0;entryDy=0;entryPerimeter=0;exitX=0.977;exitY=0.614;exitDx=0;exitDy=0;exitPerimeter=0;" edge="1" parent="1" source="sTkiGFbXtS2oKgOgArmW-8" target="sTkiGFbXtS2oKgOgArmW-12">
          <mxGeometry width="50" height="50" relative="1" as="geometry">
            <mxPoint x="756" y="644" as="sourcePoint" />
            <mxPoint x="855" y="343" as="targetPoint" />
          </mxGeometry>
        </mxCell>
        <mxCell id="sTkiGFbXtS2oKgOgArmW-18" value="" style="endArrow=classic;html=1;rounded=0;dashed=1;entryX=0;entryY=0.5;entryDx=0;entryDy=0;exitX=1;exitY=0.5;exitDx=0;exitDy=0;" edge="1" parent="1" source="sTkiGFbXtS2oKgOgArmW-8" target="sTkiGFbXtS2oKgOgArmW-13">
          <mxGeometry width="50" height="50" relative="1" as="geometry">
            <mxPoint x="688" y="709" as="sourcePoint" />
            <mxPoint x="785" y="873" as="targetPoint" />
          </mxGeometry>
        </mxCell>
        <mxCell id="sTkiGFbXtS2oKgOgArmW-19" value="" style="endArrow=none;html=1;rounded=0;entryX=0;entryY=0.5;entryDx=0;entryDy=0;exitX=0.5;exitY=0.5;exitDx=0;exitDy=0;exitPerimeter=0;" edge="1" parent="1" source="sTkiGFbXtS2oKgOgArmW-1" target="sTkiGFbXtS2oKgOgArmW-8">
          <mxGeometry width="50" height="50" relative="1" as="geometry">
            <mxPoint x="189" y="927" as="sourcePoint" />
            <mxPoint x="239" y="877" as="targetPoint" />
          </mxGeometry>
        </mxCell>
        <mxCell id="sTkiGFbXtS2oKgOgArmW-21" value="" style="swimlane;startSize=0;" vertex="1" parent="1">
          <mxGeometry x="422" y="213.25" width="898" height="815" as="geometry" />
        </mxCell>
      </root>
    </mxGraphModel>
  </diagram>
</mxfile>
